<?xml version="1.0" encoding="UTF-8"?>
<!DOCTYPE svg PUBLIC "-//W3C//DTD SVG 1.1//EN" "http://www.w3.org/Graphics/SVG/1.1/DTD/svg11.dtd">
<!-- Creator: CorelDRAW X7 -->
<svg xmlns="http://www.w3.org/2000/svg" xml:space="preserve" width="297mm" height="210mm" version="1.1" style="shape-rendering:geometricPrecision; text-rendering:geometricPrecision; image-rendering:optimizeQuality; fill-rule:evenodd; clip-rule:evenodd"
viewBox="0 0 29700000 21000000"
 xmlns:xlink="http://www.w3.org/1999/xlink">
 <defs>
  <style type="text/css">
   <![CDATA[
    .fil0 {fill:none}
    .fil1 {fill:#B2AD81}
    .fil2 {fill:#61A375}
    .fil4 {fill:dimgray;fill-rule:nonzero}
    .fil3 {fill:#538B63;fill-rule:nonzero}
    .fil5 {fill:white;fill-rule:nonzero}
   ]]>
  </style>
 </defs>
 <g id="Capa_x0020_1">
  <metadata id="CorelCorpID_0Corel-Layer"/>
  <rect class="fil0" width="29700000" height="21000000"/>
  <path class="fil1" d="M14315430 15214730c-395460,-689940 -2120330,-2125280 -3068820,-3178980l-572830 0c858920,1593940 2907640,2344690 3123160,4657760 458130,56630 1395190,-24520 1954460,-2860 -177500,-1530620 1523600,-3409330 2784910,-4101040 279470,-153250 -2057670,596810 -3140020,2518470 -399980,-1109210 -525180,-2154970 -374780,-3072330l-180230 0 -191760 0 0 -191760 0 -741800c-13610,31830 -27380,63900 -41300,96260 -28240,104130 -68890,200510 -121900,289090 -3370,5640 -6780,11230 -10220,16780l-8710 20150c-470900,1090330 -371550,2555810 -151960,3690260zm787120 -3562500c58530,-225000 134990,-441030 229730,-646870l0 -157630 0 -191760 184380 0c20260,-33870 41070,-67420 62440,-100630l-55060 0 -191760 0 0 -191760 0 -431930 0 -191760 191760 0 114810 0c200,-53750 -1240,-107050 -4120,-159910l-484040 0c-22370,166940 -62920,339480 -117650,519930l0 1552320 69510 0zm760800 -1480410c13430,-15830 26630,-31820 40370,-47450 -9700,-650 -21320,-960 -34850,-960l-153070 0 0 48410 147550 0zm320020 -332680c70260,-64550 143670,-126950 220000,-187260 -30810,-14770 -64380,-27300 -100710,-37590 -80730,-22860 -175410,-34310 -283980,-34310l-25920 0c-80520,61400 -148320,116130 -202500,159910l78610 0c130610,0 235440,33090 314500,99250zm554510 -425360c551990,-353070 1232730,-610510 2043020,-751400 -969160,-80980 -1772160,261460 -2324450,599010 101390,34200 191490,82050 270240,143490 3770,2940 7500,5910 11190,8900zm-1151720 -217320c-201610,-1003220 -955760,-1784720 -1833030,-2061910 -373390,-117950 -964900,-217970 -1322780,-71240 255130,-2890 1011880,37640 1701960,485020 529090,342970 831460,829220 960050,1231640 43730,136910 67930,275220 75510,416490l418290 0zm-4661100 2455770c-137090,-179810 -235700,-340260 -281020,-473430l0 473430 281020 0zm-270350 -2455770c220060,-513480 581840,-901420 923850,-1059960 -548130,134020 -915880,527360 -1116910,1059960l193060 0z"/>
  <path class="fil2" d="M15037840 7489760c41970,-176950 272280,-569450 597750,-788740 405880,-273510 918390,-358680 918230,-359500 -648620,-134610 -1542030,454770 -1609130,1319710 -457570,-1081070 506890,-1531980 1298570,-1647940 468980,-68680 892750,-7430 868020,71240 -223570,711260 -603300,1003710 -1070940,1116200 -322410,77550 -777940,-27810 -1002500,289030z"/>
  <path class="fil2" d="M14161750 7128900c13190,-150960 -66070,-521770 -265990,-780540 -249310,-322730 -632330,-524450 -631990,-525060 548280,63580 1100380,763950 926700,1465630 645310,-735070 720,-1344550 -595030,-1643810 -352910,-177270 -704130,-239930 -705200,-171220 -9650,621150 214020,952010 554390,1163570 234670,145860 622570,181960 717120,491430z"/>
  <path class="fil2" d="M16855590 8757570c5950,-172600 146910,-581120 408860,-846190 326680,-330600 787880,-505820 787570,-506560 -629040,-3910 -1350480,712010 -1251060,1529810 -628330,-920810 185160,-1521120 900500,-1777250 423760,-151720 829740,-174020 821440,-96150 -75000,704020 -373790,1047360 -788100,1239610 -285640,132540 -729450,119720 -879210,456730z"/>
  <path class="fil2" d="M14474180 8964400c-66350,-150440 -335530,-461610 -660890,-603180 -405750,-176580 -875400,-168200 -875390,-168960 554590,-226110 1445640,151300 1647240,909310 229420,-1036260 -702070,-1278910 -1424980,-1252090 -428240,15890 -794970,139880 -760070,205770 315490,595700 701100,793400 1135330,816680 299390,16040 687100,-152380 938760,92470z"/>
  <path class="fil2" d="M13378640 13773590c27540,-149010 -15970,-525700 -190280,-802360 -217370,-345050 -579390,-582410 -578990,-582990 539720,115630 1022440,865490 782580,1547390 712520,-670120 129060,-1338340 -435410,-1693090 -334390,-210150 -678020,-306050 -685640,-237760 -68890,617400 122180,968090 440800,1211180 219670,167590 602360,240550 666940,557630z"/>
  <path class="fil2" d="M15799110 14010770c-24670,-164510 37080,-576170 238630,-873220 251330,-370480 657360,-617430 656940,-618070 -596450,106760 -1153990,911500 -916210,1668580 -756800,-761750 -91770,-1473160 540740,-1841370 374690,-218110 755280,-310530 761100,-235320 52600,679940 -170090,1057590 -528710,1312430 -247260,175690 -669830,241490 -752490,586970z"/>
  <path class="fil2" d="M11145950 8115830c-7970,-136530 73180,-468980 260270,-697210 233300,-284650 584080,-456660 583780,-457220 -496260,43090 -1012540,660530 -874120,1298040 -563010,-679900 34340,-1212940 579560,-1467400 322980,-150740 641440,-198120 640620,-136120 -7460,560610 -217850,853250 -530400,1035250 -215490,125470 -566360,147940 -659710,424660z"/>
  <path class="fil3" d="M20879740 12617710l8740 2271120 -406170 -265310c-248500,369220 -531890,712990 -845490,1026590 -1243750,1243780 -2961940,2013060 -4859730,2013060 -1897780,0 -3615980,-769280 -4859730,-2013060 -826070,-826070 -1442730,-1861470 -1763830,-3019720l1590150 0c270370,739430 699010,1402630 1244890,1948510 969500,969500 2308970,1569190 3788520,1569190 1479550,0 2819030,-599690 3788520,-1569190 239840,-239840 457080,-502350 648150,-784000l-390130 -254840 2056110 -922350z"/>
  <path class="fil4" d="M14777090 3336810c1897790,0 3615980,769280 4859730,2013060 848450,848440 1476040,1917780 1789310,3114230l-1582170 0c-267740,-777460 -709310,-1473990 -1278350,-2043020 -969490,-969500 -2308970,-1569190 -3788520,-1569190 -1479550,0 -2819020,599690 -3788520,1569190 -240470,240460 -458160,503660 -649590,786140l382780 202590 -1991440 1091870 -112740 -1344000 -75630 -901620 451720 239100c266680,-414420 576710,-798340 923690,-1145290 1243750,-1243780 2961950,-2013060 4859730,-2013060z"/>
  <path class="fil3" d="M20477340 9388230l0 1424690c0,132380 30770,234520 92310,306510 61550,72020 155010,108000 280410,108000 125380,0 220030,-36580 283880,-109710 63870,-73170 95800,-174760 95800,-304800l0 -1424690 682750 0 0 1424690c0,225260 -47610,417400 -142810,576500 -95220,159070 -224690,278640 -388420,358780 -163700,80110 -345400,120170 -545140,120170 -199710,0 -377930,-40060 -534690,-120170 -156760,-80140 -279840,-199140 -369240,-357040 -89370,-157930 -134090,-350690 -134090,-578240l0 -1424690 679240 0zm-1915830 1532660l-264760 -794180 -261210 794180 525970 0zm170700 522510l-870830 0 -132380 400600 -717590 0 895240 -2455770 787240 0 891720 2455770 -721050 0 -132350 -400600zm-2811070 -149810c171820,0 257760,-71960 257760,-215940 0,-74310 -22660,-131210 -67930,-170680 -45270,-39460 -109720,-59240 -193310,-59240l-393620 0 0 445860 397100 0zm-397100 -930020l344830 0c171880,0 257790,-70820 257790,-212510 0,-146270 -85910,-219400 -257790,-219400l-344830 0 0 431910zm884780 219460c143950,32500 258320,103910 343090,214200 84740,110320 127120,236320 127120,377960 0,209000 -71990,372730 -215970,491160 -143960,118430 -345980,177650 -606050,177650l-1215730 0 0 -2455770 1177400 0c250790,0 447580,55750 590420,167210 142810,111460 214200,268220 214200,470240 0,143980 -37700,264160 -113200,360550 -75480,96370 -175910,161960 -301280,196800z"/>
  <path class="fil4" d="M13029970 9388230l0 1424690c0,132380 30750,234520 92310,306510 61530,72020 155010,108000 280420,108000 125370,0 220030,-36580 283870,-109710 63850,-73170 95770,-174760 95770,-304800l0 -1424690 682780 0 0 1424690c0,225260 -47610,417400 -142830,576500 -95200,159070 -224660,278640 -388390,358780 -163730,80110 -345440,120170 -545150,120170 -199710,0 -377930,-40060 -534690,-120170 -156780,-80140 -279840,-199140 -369240,-357040 -89390,-157930 -134090,-350690 -134090,-578240l0 -1424690 679240 0z"/>
  <polygon class="fil4" points="11135030,9935110 11135030,10335710 11918790,10335710 11918790,10854700 11135030,10854700 11135030,11297110 12023270,11297110 12023270,11844000 10452280,11844000 10452280,9388230 12023270,9388230 12023270,9935110 "/>
  <polygon class="fil4" points="10062150,11844000 9379420,11844000 8470290,10471540 8470290,11844000 7787510,11844000 7787510,9388230 8470290,9388230 9379420,10778080 9379420,9388230 10062150,9388230 "/>
  <path class="fil5" d="M9970750 6382820c-63280,-54570 -108310,-116480 -135070,-185700 -26760,-69260 -33000,-140150 -18700,-212710 14290,-72550 48720,-140460 103300,-203750 69270,-80320 148960,-129380 239100,-147130 90110,-17780 178830,-2820 266080,44860l-166070 192580c-34310,-9430 -66650,-9470 -97000,-90 -30370,9350 -57090,27430 -80180,54210 -35670,41370 -49400,87090 -41140,137200 8270,50100 37030,96390 86330,138900 49890,43030 100230,64950 150980,65750 50780,810 93980,-19470 129670,-60860 23090,-26770 37040,-55860 41840,-87260 4810,-31400 30,-63380 -14350,-95930l166080 -192580c59990,79310 87810,164850 83480,256610 -4330,91760 -41130,177790 -110400,258120 -54570,63270 -116700,107320 -186350,132120 -69670,24810 -140710,29050 -213140,12750 -72410,-16300 -140570,-51990 -204460,-107090zm1454500 -806960c-65140,45660 -135750,72310 -211800,79990 -76070,7680 -149070,-4440 -219030,-36350 -69960,-31930 -128910,-82100 -176870,-150530 -47980,-68450 -75010,-140990 -81140,-217650 -6130,-76630 7500,-149230 40910,-217770 33400,-68550 82660,-125650 147810,-171300 65810,-46120 136440,-73070 211950,-80840 75500,-7780 148060,4410 217690,36550 69620,32160 128420,82440 176390,150890 47960,68430 75160,140860 81630,217270 6460,76420 -6910,149080 -40060,217950 -33180,68860 -82340,126140 -147480,171790zm-125900 -179650c49350,-34580 77040,-78010 83060,-130310 6040,-52320 -9860,-105440 -47670,-159400 -38750,-55270 -83590,-88840 -134600,-100680 -50970,-11860 -101140,-500 -150510,34090 -50000,35050 -77970,78450 -83900,130180 -5930,51750 10490,105250 49220,160520 38280,54610 82740,87980 133400,100050 50650,12090 100990,600 151000,-34450zm1477250 -574800l-215280 97260 -482180 -303280 195490 432780 -215290 97240 -349810 -774370 215300 -97260 484650 308770 -197970 -438270 215280 -97240 349810 774370zm656860 -176280c-96290,22220 -180650,17580 -253080,-13950 -72420,-31530 -120820,-89410 -145220,-173670l245450 -56660c9040,28440 22530,47590 40470,57450 17950,9900 38650,12120 62150,6690 21140,-4880 37340,-14190 48600,-27910 11260,-13740 14720,-30000 10390,-48790 -5600,-24250 -21280,-40440 -47060,-48510 -25780,-8060 -66010,-14440 -120700,-19150 -58170,-5540 -105840,-12880 -143000,-22040 -37170,-9150 -71820,-27130 -103970,-53920 -32180,-26810 -54300,-66440 -66410,-118890 -12290,-53250 -9510,-101920 8350,-146030 17860,-44120 48010,-81390 90470,-111790 42470,-30430 93440,-52510 152930,-66230 96320,-22220 178450,-17470 246360,14270 67950,31740 113260,87870 135980,168390l-250150 57740c-6570,-24870 -18540,-41910 -35910,-51090 -17370,-9190 -37430,-11160 -60130,-5930 -17230,3980 -30140,12320 -38750,25030 -8610,12710 -10750,28460 -6410,47250 3620,15670 12790,27760 27550,36330 14760,8540 32080,14840 51990,18900 19900,4070 48910,8320 87030,12700 56630,5910 103980,13740 142120,23490 38120,9750 73170,27640 105150,53650 31980,26020 53570,63310 64770,111840 11390,49320 9270,96410 -6360,141260 -15630,44820 -44130,83970 -85470,117420 -41340,33460 -93730,57520 -157140,72150zm855050 -998140l7970 492910c740,45780 11960,80970 33660,105520 21690,24560 54220,36490 97610,35790 43380,-690 75930,-13880 97610,-39540 21680,-25670 32160,-60990 31440,-105990l-7980 -492890 236210 -3830 7980 492910c1250,77920 -14150,144670 -46200,200240 -32060,55570 -76170,97670 -132360,126310 -56190,28620 -118840,43500 -187920,44610 -69100,1130 -130990,-11740 -185660,-38580 -54680,-26850 -97930,-67320 -129750,-121470 -31810,-54120 -48350,-120560 -49640,-199280l-7970 -492910 235000 -3800zm1123300 703520l261550 35590 -24370 179140 -495630 -67430 114560 -841960 234070 31840 -90180 662820zm1400150 -370010l-52340 180590 -217640 -63070 -184180 635540 -226900 -65750 184180 -635550 -215310 -62390 52330 -180590 659860 191220zm416660 1117190c-70510,-36830 -126670,-87230 -168490,-151220 -41830,-63990 -64660,-134390 -68500,-211170 -3880,-76820 13530,-152250 52210,-226320 38690,-74080 90650,-131480 155880,-172190 65230,-40720 135950,-62030 212180,-63920 76230,-1890 149590,15570 220100,52390 71230,37200 127660,87520 169310,150980 41670,63450 64240,133470 67740,210090 3500,76610 -14080,151950 -52770,226030 -38680,74070 -90470,131550 -155340,172460 -64860,40900 -135520,62480 -211930,64750 -76400,2230 -149870,-15050 -220390,-51880zm101560 -194440c53420,27890 104730,32480 153920,13760 49230,-18720 89080,-57280 119570,-115670 31250,-59850 40400,-115110 27440,-165850 -12940,-50700 -46100,-90020 -99530,-117920 -54120,-28260 -105530,-33120 -154190,-14580 -48670,18560 -88610,57740 -119860,117580 -30880,59110 -40030,113950 -27430,164470 12580,50550 45950,89940 100080,118210zm904410 834730l60380 -350740 -19910 -15610 -193230 246700 -185990 -145670 523950 -668950 293210 229650c53770,42110 92010,87120 114710,135010 22710,47890 30790,95560 24240,143000 -6530,47460 -25660,91420 -57370,131890 -35670,45550 -79500,75780 -131490,90680 -51990,14890 -107720,10800 -167200,-12300l-53490 379110 -207810 -162770zm140050 -493490l92030 72070c25310,19830 49010,28690 71060,26570 22050,-2110 42030,-14550 59860,-37330 16840,-21490 23610,-43500 20300,-65990 -3300,-22500 -17290,-43390 -41960,-62730l-92040 -72070 -109250 139480zm762860 1198080l-196430 -228470 -134970 55630 -161870 -188280 846260 -319090 177590 206560 -443160 787940 -162650 -189190 75230 -125100zm98590 -162630l148640 -248620 -267300 110610 118660 138010z"/>
  <path class="fil5" d="M10263060 15421380l-207910 -218100 -131930 62490 -171330 -179710 828760 -362120 187960 197150 -402110 809660 -172150 -180580 68710 -128790zm90110 -167510l135680 -255910 -261260 124190 125580 131720zm1816680 686400l-458600 715330 -198850 -127490 253040 -394690 -387990 308180 -166420 -106700 119030 -484900 -254990 397740 -198890 -127490 458600 -715340 240480 154160 -118320 579850 473460 -352170 239450 153520zm843220 740060c43570,26620 73150,62710 88680,108280 15550,45540 15490,91530 -220,137970 -23180,68500 -64930,114170 -125260,137010 -60320,22870 -133120,19860 -218360,-8990l-398450 -134810 272340 -804900 385910 130570c82190,27820 140530,67910 174970,120280 34450,52370 40470,111660 18060,177890 -15970,47190 -41670,82390 -77100,105610 -35420,23220 -75600,33580 -120570,31090zm-265670 -170040l113030 38230c56330,19060 92350,5370 108050,-41050 16230,-47950 -3810,-81460 -60140,-100520l-113020 -38240 -47920 141580zm27020 348870c56320,19060 92460,4980 108430,-42210 8250,-24360 7140,-45510 -3340,-63460 -10450,-17970 -29380,-31590 -56790,-40870l-129000 -43650 -49450 146140 130150 44050zm1248330 -399940l-107120 842950 -234360 -29780 107120 -842950 234360 29780zm806480 229890l3520 138560 271090 -6850 4540 179540 -271100 6850 3870 153010 307250 -7770 4780 189180 -543410 13730 -21470 -849440 543410 -13740 4780 189160 -307260 7770zm1765880 401770l-230190 53140 -413310 -391970 106790 462710 -230170 53140 -191110 -827950 230180 -53130 414670 397830 -108150 -468580 230190 -53140 191100 827950zm886050 -1282180l77450 171330 -206470 93350 272610 602940 -215250 97320 -272610 -602930 -204280 92360 -77460 -171320 626010 -283050zm1245220 -3680l-236920 186170 49640 137290 -195240 153410 -281450 -859510 214160 -168310 767630 477480 -196160 154150 -121660 -80680zm-158140 -105670l-241820 -159470 98710 271930 143110 -112460zm950090 -712490l172820 -199510 136650 118380 -327500 378070 -642250 -556370 154680 -178560 505600 437990z"/>
 </g>
</svg>
